REM MD5 5289483b87cc561a46f168b41a3dbcbd
FILE "Euro Demo 55 (Europe).bin" BINARY
  TRACK 01 MODE2/2352
    INDEX 01 00:00:00
  TRACK 02 AUDIO
    INDEX 00 35:23:49
    INDEX 01 35:25:49
  TRACK 03 AUDIO
    INDEX 00 35:55:38
    INDEX 01 35:57:38
REM LEADOUT 38:58:70
